# MagicaVoxel @ Ephtracy

# group
g X_road

# material
mtllib X_road.mtl
usemtl palette

# normals
vn -1 0 0
vn 1 0 0
vn 0 0 1
vn 0 0 -1
vn 0 -1 0
vn 0 1 0

# texcoords
vt 0.0136719 0.5
vt 0.974609 0.5
vt 0.986328 0.5

# verts
v -50 14 25
v -50 14 -25
v -50 16 25
v -50 16 21
v -50 16 -21
v -50 16 -25
v -50 18 25
v -50 18 21
v -50 18 -21
v -50 18 -25
v -41 0 25
v -41 0 22
v -41 0 -22
v -41 0 -25
v -41 14 25
v -41 14 22
v -41 14 -22
v -41 14 -25
v -25 0 41
v -25 0 35
v -25 0 16
v -25 0 10
v -25 0 -9
v -25 0 -15
v -25 0 -34
v -25 0 -40
v -25 14 50
v -25 14 41
v -25 14 35
v -25 14 25
v -25 14 16
v -25 14 10
v -25 14 -9
v -25 14 -15
v -25 14 -25
v -25 14 -34
v -25 14 -40
v -25 14 -50
v -25 16 50
v -25 16 25
v -25 16 -25
v -25 16 -50
v -25 18 50
v -25 18 25
v -25 18 -25
v -25 18 -50
v 21 16 50
v 21 16 21
v 21 16 -21
v 21 16 -50
v 21 18 50
v 21 18 21
v 21 18 -21
v 21 18 -50
v 22 0 41
v 22 0 35
v 22 0 16
v 22 0 10
v 22 0 -9
v 22 0 -15
v 22 0 -34
v 22 0 -40
v 22 14 41
v 22 14 35
v 22 14 16
v 22 14 10
v 22 14 -9
v 22 14 -15
v 22 14 -34
v 22 14 -40
v 35 0 25
v 35 0 22
v 35 0 -22
v 35 0 -25
v 35 14 25
v 35 14 22
v 35 14 -22
v 35 14 -25
v -35 0 25
v -35 0 22
v -35 0 -22
v -35 0 -25
v -35 14 25
v -35 14 22
v -35 14 -22
v -35 14 -25
v -22 0 41
v -22 0 35
v -22 0 16
v -22 0 10
v -22 0 -9
v -22 0 -15
v -22 0 -34
v -22 0 -40
v -22 14 41
v -22 14 35
v -22 14 16
v -22 14 10
v -22 14 -9
v -22 14 -15
v -22 14 -34
v -22 14 -40
v -21 16 50
v -21 16 21
v -21 16 -21
v -21 16 -50
v -21 18 50
v -21 18 21
v -21 18 -21
v -21 18 -50
v 25 0 41
v 25 0 35
v 25 0 16
v 25 0 10
v 25 0 -9
v 25 0 -15
v 25 0 -34
v 25 0 -40
v 25 14 50
v 25 14 41
v 25 14 35
v 25 14 25
v 25 14 16
v 25 14 10
v 25 14 -9
v 25 14 -15
v 25 14 -25
v 25 14 -34
v 25 14 -40
v 25 14 -50
v 25 16 50
v 25 16 25
v 25 16 -25
v 25 16 -50
v 25 18 50
v 25 18 25
v 25 18 -25
v 25 18 -50
v 41 0 25
v 41 0 22
v 41 0 -22
v 41 0 -25
v 41 14 25
v 41 14 22
v 41 14 -22
v 41 14 -25
v 50 14 25
v 50 14 -25
v 50 16 25
v 50 16 21
v 50 16 -21
v 50 16 -25
v 50 18 25
v 50 18 21
v 50 18 -21
v 50 18 -25
v -25 14 50
v -25 16 50
v -25 18 50
v -21 16 50
v -21 18 50
v 21 16 50
v 21 18 50
v 25 14 50
v 25 16 50
v 25 18 50
v -25 0 41
v -25 14 41
v -22 0 41
v -22 14 41
v 22 0 41
v 22 14 41
v 25 0 41
v 25 14 41
v -50 14 25
v -50 16 25
v -50 18 25
v -41 0 25
v -41 14 25
v -35 0 25
v -35 14 25
v -25 14 25
v -25 16 25
v -25 18 25
v 25 14 25
v 25 16 25
v 25 18 25
v 35 0 25
v 35 14 25
v 41 0 25
v 41 14 25
v 50 14 25
v 50 16 25
v 50 18 25
v -25 0 16
v -25 14 16
v -22 0 16
v -22 14 16
v 22 0 16
v 22 14 16
v 25 0 16
v 25 14 16
v -25 0 -9
v -25 14 -9
v -22 0 -9
v -22 14 -9
v 22 0 -9
v 22 14 -9
v 25 0 -9
v 25 14 -9
v -50 16 -21
v -50 18 -21
v -21 16 -21
v -21 18 -21
v 21 16 -21
v 21 18 -21
v 50 16 -21
v 50 18 -21
v -41 0 -22
v -41 14 -22
v -35 0 -22
v -35 14 -22
v 35 0 -22
v 35 14 -22
v 41 0 -22
v 41 14 -22
v -25 0 -34
v -25 14 -34
v -22 0 -34
v -22 14 -34
v 22 0 -34
v 22 14 -34
v 25 0 -34
v 25 14 -34
v -25 0 35
v -25 14 35
v -22 0 35
v -22 14 35
v 22 0 35
v 22 14 35
v 25 0 35
v 25 14 35
v -41 0 22
v -41 14 22
v -35 0 22
v -35 14 22
v 35 0 22
v 35 14 22
v 41 0 22
v 41 14 22
v -50 16 21
v -50 18 21
v -21 16 21
v -21 18 21
v 21 16 21
v 21 18 21
v 50 16 21
v 50 18 21
v -25 0 10
v -25 14 10
v -22 0 10
v -22 14 10
v 22 0 10
v 22 14 10
v 25 0 10
v 25 14 10
v -25 0 -15
v -25 14 -15
v -22 0 -15
v -22 14 -15
v 22 0 -15
v 22 14 -15
v 25 0 -15
v 25 14 -15
v -50 14 -25
v -50 16 -25
v -50 18 -25
v -41 0 -25
v -41 14 -25
v -35 0 -25
v -35 14 -25
v -25 14 -25
v -25 16 -25
v -25 18 -25
v 25 14 -25
v 25 16 -25
v 25 18 -25
v 35 0 -25
v 35 14 -25
v 41 0 -25
v 41 14 -25
v 50 14 -25
v 50 16 -25
v 50 18 -25
v -25 0 -40
v -25 14 -40
v -22 0 -40
v -22 14 -40
v 22 0 -40
v 22 14 -40
v 25 0 -40
v 25 14 -40
v -25 14 -50
v -25 16 -50
v -25 18 -50
v -21 16 -50
v -21 18 -50
v 21 16 -50
v 21 18 -50
v 25 14 -50
v 25 16 -50
v 25 18 -50
v -25 0 41
v -22 0 41
v 22 0 41
v 25 0 41
v -25 0 35
v -22 0 35
v 22 0 35
v 25 0 35
v -41 0 25
v -35 0 25
v 35 0 25
v 41 0 25
v -41 0 22
v -35 0 22
v 35 0 22
v 41 0 22
v -25 0 16
v -22 0 16
v 22 0 16
v 25 0 16
v -25 0 10
v -22 0 10
v 22 0 10
v 25 0 10
v -25 0 -9
v -22 0 -9
v 22 0 -9
v 25 0 -9
v -25 0 -15
v -22 0 -15
v 22 0 -15
v 25 0 -15
v -41 0 -22
v -35 0 -22
v 35 0 -22
v 41 0 -22
v -41 0 -25
v -35 0 -25
v 35 0 -25
v 41 0 -25
v -25 0 -34
v -22 0 -34
v 22 0 -34
v 25 0 -34
v -25 0 -40
v -22 0 -40
v 22 0 -40
v 25 0 -40
v -25 14 50
v 25 14 50
v -25 14 41
v -22 14 41
v 22 14 41
v 25 14 41
v -25 14 35
v -22 14 35
v 22 14 35
v 25 14 35
v -50 14 25
v -41 14 25
v -35 14 25
v -25 14 25
v 25 14 25
v 35 14 25
v 41 14 25
v 50 14 25
v -41 14 22
v -35 14 22
v 35 14 22
v 41 14 22
v -25 14 16
v -22 14 16
v 22 14 16
v 25 14 16
v -25 14 10
v -22 14 10
v 22 14 10
v 25 14 10
v -25 14 -9
v -22 14 -9
v 22 14 -9
v 25 14 -9
v -25 14 -15
v -22 14 -15
v 22 14 -15
v 25 14 -15
v -41 14 -22
v -35 14 -22
v 35 14 -22
v 41 14 -22
v -50 14 -25
v -41 14 -25
v -35 14 -25
v -25 14 -25
v 25 14 -25
v 35 14 -25
v 41 14 -25
v 50 14 -25
v -25 14 -34
v -22 14 -34
v 22 14 -34
v 25 14 -34
v -25 14 -40
v -22 14 -40
v 22 14 -40
v 25 14 -40
v -25 14 -50
v 25 14 -50
v -21 16 50
v 21 16 50
v -1 16 47
v 2 16 47
v -1 16 28
v 2 16 28
v -1 16 22
v 2 16 22
v -50 16 21
v -21 16 21
v 21 16 21
v 50 16 21
v -1 16 6
v 2 16 6
v -47 16 1
v -28 16 1
v -22 16 1
v -6 16 1
v 6 16 1
v 22 16 1
v 28 16 1
v 47 16 1
v -47 16 -2
v -28 16 -2
v -22 16 -2
v -6 16 -2
v 6 16 -2
v 22 16 -2
v 28 16 -2
v 47 16 -2
v -1 16 -7
v 2 16 -7
v -50 16 -21
v -21 16 -21
v 21 16 -21
v 50 16 -21
v -1 16 -23
v 2 16 -23
v -1 16 -29
v 2 16 -29
v -1 16 -48
v 2 16 -48
v -21 16 -50
v 21 16 -50
v -25 18 50
v -21 18 50
v 21 18 50
v 25 18 50
v -50 18 25
v -25 18 25
v 25 18 25
v 50 18 25
v -50 18 21
v -21 18 21
v 21 18 21
v 50 18 21
v -50 18 -21
v -21 18 -21
v 21 18 -21
v 50 18 -21
v -50 18 -25
v -25 18 -25
v 25 18 -25
v 50 18 -25
v -25 18 -50
v -21 18 -50
v 21 18 -50
v 25 18 -50

# faces
f 3/2/1 2/2/1 1/2/1
f 4/2/1 2/2/1 3/2/1
f 5/2/1 2/2/1 4/2/1
f 6/2/1 2/2/1 5/2/1
f 7/3/1 4/3/1 3/3/1
f 8/3/1 4/3/1 7/3/1
f 9/3/1 6/3/1 5/3/1
f 10/3/1 6/3/1 9/3/1
f 15/2/1 12/2/1 11/2/1
f 16/2/1 12/2/1 15/2/1
f 17/2/1 14/2/1 13/2/1
f 18/2/1 14/2/1 17/2/1
f 28/2/1 20/2/1 19/2/1
f 29/2/1 20/2/1 28/2/1
f 31/2/1 22/2/1 21/2/1
f 32/2/1 22/2/1 31/2/1
f 33/2/1 24/2/1 23/2/1
f 34/2/1 24/2/1 33/2/1
f 36/2/1 26/2/1 25/2/1
f 37/2/1 26/2/1 36/2/1
f 39/2/1 30/2/1 29/2/1
f 39/2/1 28/2/1 27/2/1
f 39/2/1 29/2/1 28/2/1
f 40/2/1 30/2/1 39/2/1
f 41/2/1 38/2/1 37/2/1
f 41/2/1 37/2/1 36/2/1
f 41/2/1 36/2/1 35/2/1
f 42/2/1 38/2/1 41/2/1
f 43/3/1 40/3/1 39/3/1
f 44/3/1 40/3/1 43/3/1
f 45/3/1 42/3/1 41/3/1
f 46/3/1 42/3/1 45/3/1
f 51/3/1 48/3/1 47/3/1
f 52/3/1 48/3/1 51/3/1
f 53/3/1 50/3/1 49/3/1
f 54/3/1 50/3/1 53/3/1
f 63/2/1 56/2/1 55/2/1
f 64/2/1 56/2/1 63/2/1
f 65/2/1 58/2/1 57/2/1
f 66/2/1 58/2/1 65/2/1
f 67/2/1 60/2/1 59/2/1
f 68/2/1 60/2/1 67/2/1
f 69/2/1 62/2/1 61/2/1
f 70/2/1 62/2/1 69/2/1
f 75/2/1 72/2/1 71/2/1
f 76/2/1 72/2/1 75/2/1
f 77/2/1 74/2/1 73/2/1
f 78/2/1 74/2/1 77/2/1
f 79/2/2 80/2/2 83/2/2
f 83/2/2 80/2/2 84/2/2
f 81/2/2 82/2/2 85/2/2
f 85/2/2 82/2/2 86/2/2
f 87/2/2 88/2/2 95/2/2
f 95/2/2 88/2/2 96/2/2
f 89/2/2 90/2/2 97/2/2
f 97/2/2 90/2/2 98/2/2
f 91/2/2 92/2/2 99/2/2
f 99/2/2 92/2/2 100/2/2
f 93/2/2 94/2/2 101/2/2
f 101/2/2 94/2/2 102/2/2
f 103/3/2 104/3/2 107/3/2
f 107/3/2 104/3/2 108/3/2
f 105/3/2 106/3/2 109/3/2
f 109/3/2 106/3/2 110/3/2
f 111/2/2 112/2/2 120/2/2
f 120/2/2 112/2/2 121/2/2
f 113/2/2 114/2/2 123/2/2
f 123/2/2 114/2/2 124/2/2
f 115/2/2 116/2/2 125/2/2
f 125/2/2 116/2/2 126/2/2
f 117/2/2 118/2/2 128/2/2
f 128/2/2 118/2/2 129/2/2
f 121/2/2 122/2/2 131/2/2
f 119/2/2 120/2/2 131/2/2
f 120/2/2 121/2/2 131/2/2
f 131/2/2 122/2/2 132/2/2
f 129/2/2 130/2/2 133/2/2
f 128/2/2 129/2/2 133/2/2
f 127/2/2 128/2/2 133/2/2
f 133/2/2 130/2/2 134/2/2
f 131/3/2 132/3/2 135/3/2
f 135/3/2 132/3/2 136/3/2
f 133/3/2 134/3/2 137/3/2
f 137/3/2 134/3/2 138/3/2
f 139/2/2 140/2/2 143/2/2
f 143/2/2 140/2/2 144/2/2
f 141/2/2 142/2/2 145/2/2
f 145/2/2 142/2/2 146/2/2
f 147/2/2 148/2/2 149/2/2
f 149/2/2 148/2/2 150/2/2
f 150/2/2 148/2/2 151/2/2
f 151/2/2 148/2/2 152/2/2
f 149/3/2 150/3/2 153/3/2
f 153/3/2 150/3/2 154/3/2
f 151/3/2 152/3/2 155/3/2
f 155/3/2 152/3/2 156/3/2
f 160/2/3 158/2/3 157/2/3
f 160/3/3 159/3/3 158/3/3
f 161/3/3 159/3/3 160/3/3
f 162/2/3 160/2/3 157/2/3
f 164/2/3 162/2/3 157/2/3
f 165/3/3 163/3/3 162/3/3
f 165/2/3 162/2/3 164/2/3
f 166/3/3 163/3/3 165/3/3
f 169/2/3 168/2/3 167/2/3
f 170/2/3 168/2/3 169/2/3
f 173/2/3 172/2/3 171/2/3
f 174/2/3 172/2/3 173/2/3
f 179/2/3 176/2/3 175/2/3
f 180/2/3 179/2/3 178/2/3
f 181/2/3 176/2/3 179/2/3
f 181/2/3 179/2/3 180/2/3
f 182/2/3 176/2/3 181/2/3
f 183/3/3 177/3/3 176/3/3
f 183/2/3 176/2/3 182/2/3
f 184/3/3 177/3/3 183/3/3
f 189/2/3 186/2/3 185/2/3
f 190/2/3 189/2/3 188/2/3
f 191/2/3 186/2/3 189/2/3
f 191/2/3 189/2/3 190/2/3
f 192/2/3 186/2/3 191/2/3
f 193/3/3 187/3/3 186/3/3
f 193/2/3 186/2/3 192/2/3
f 194/3/3 187/3/3 193/3/3
f 197/2/3 196/2/3 195/2/3
f 198/2/3 196/2/3 197/2/3
f 201/2/3 200/2/3 199/2/3
f 202/2/3 200/2/3 201/2/3
f 205/2/3 204/2/3 203/2/3
f 206/2/3 204/2/3 205/2/3
f 209/2/3 208/2/3 207/2/3
f 210/2/3 208/2/3 209/2/3
f 213/3/3 212/3/3 211/3/3
f 214/3/3 212/3/3 213/3/3
f 217/3/3 216/3/3 215/3/3
f 218/3/3 216/3/3 217/3/3
f 221/2/3 220/2/3 219/2/3
f 222/2/3 220/2/3 221/2/3
f 225/2/3 224/2/3 223/2/3
f 226/2/3 224/2/3 225/2/3
f 229/2/3 228/2/3 227/2/3
f 230/2/3 228/2/3 229/2/3
f 233/2/3 232/2/3 231/2/3
f 234/2/3 232/2/3 233/2/3
f 235/2/4 236/2/4 237/2/4
f 237/2/4 236/2/4 238/2/4
f 239/2/4 240/2/4 241/2/4
f 241/2/4 240/2/4 242/2/4
f 243/2/4 244/2/4 245/2/4
f 245/2/4 244/2/4 246/2/4
f 247/2/4 248/2/4 249/2/4
f 249/2/4 248/2/4 250/2/4
f 251/3/4 252/3/4 253/3/4
f 253/3/4 252/3/4 254/3/4
f 255/3/4 256/3/4 257/3/4
f 257/3/4 256/3/4 258/3/4
f 259/2/4 260/2/4 261/2/4
f 261/2/4 260/2/4 262/2/4
f 263/2/4 264/2/4 265/2/4
f 265/2/4 264/2/4 266/2/4
f 267/2/4 268/2/4 269/2/4
f 269/2/4 268/2/4 270/2/4
f 271/2/4 272/2/4 273/2/4
f 273/2/4 272/2/4 274/2/4
f 275/2/4 276/2/4 279/2/4
f 278/2/4 279/2/4 280/2/4
f 279/2/4 276/2/4 281/2/4
f 280/2/4 279/2/4 281/2/4
f 281/2/4 276/2/4 282/2/4
f 276/3/4 277/3/4 283/3/4
f 282/2/4 276/2/4 283/2/4
f 283/3/4 277/3/4 284/3/4
f 285/2/4 286/2/4 289/2/4
f 288/2/4 289/2/4 290/2/4
f 289/2/4 286/2/4 291/2/4
f 290/2/4 289/2/4 291/2/4
f 291/2/4 286/2/4 292/2/4
f 286/3/4 287/3/4 293/3/4
f 292/2/4 286/2/4 293/2/4
f 293/3/4 287/3/4 294/3/4
f 295/2/4 296/2/4 297/2/4
f 297/2/4 296/2/4 298/2/4
f 299/2/4 300/2/4 301/2/4
f 301/2/4 300/2/4 302/2/4
f 303/2/4 304/2/4 306/2/4
f 304/3/4 305/3/4 306/3/4
f 306/3/4 305/3/4 307/3/4
f 303/2/4 306/2/4 308/2/4
f 303/2/4 308/2/4 310/2/4
f 308/3/4 309/3/4 311/3/4
f 310/2/4 308/2/4 311/2/4
f 311/3/4 309/3/4 312/3/4
f 317/2/5 314/2/5 313/2/5
f 318/2/5 314/2/5 317/2/5
f 319/2/5 316/2/5 315/2/5
f 320/2/5 316/2/5 319/2/5
f 325/2/5 322/2/5 321/2/5
f 326/2/5 322/2/5 325/2/5
f 327/2/5 324/2/5 323/2/5
f 328/2/5 324/2/5 327/2/5
f 333/2/5 330/2/5 329/2/5
f 334/2/5 330/2/5 333/2/5
f 335/2/5 332/2/5 331/2/5
f 336/2/5 332/2/5 335/2/5
f 341/2/5 338/2/5 337/2/5
f 342/2/5 338/2/5 341/2/5
f 343/2/5 340/2/5 339/2/5
f 344/2/5 340/2/5 343/2/5
f 349/2/5 346/2/5 345/2/5
f 350/2/5 346/2/5 349/2/5
f 351/2/5 348/2/5 347/2/5
f 352/2/5 348/2/5 351/2/5
f 357/2/5 354/2/5 353/2/5
f 358/2/5 354/2/5 357/2/5
f 359/2/5 356/2/5 355/2/5
f 360/2/5 356/2/5 359/2/5
f 363/2/5 362/2/5 361/2/5
f 364/2/5 362/2/5 363/2/5
f 365/2/5 362/2/5 364/2/5
f 366/2/5 362/2/5 365/2/5
f 368/2/5 365/2/5 364/2/5
f 369/2/5 365/2/5 368/2/5
f 374/2/5 368/2/5 367/2/5
f 374/2/5 369/2/5 368/2/5
f 374/2/5 370/2/5 369/2/5
f 375/2/5 370/2/5 374/2/5
f 379/2/5 372/2/5 371/2/5
f 380/2/5 375/2/5 374/2/5
f 380/2/5 374/2/5 373/2/5
f 380/2/5 376/2/5 375/2/5
f 381/2/5 376/2/5 380/2/5
f 382/2/5 378/2/5 377/2/5
f 383/2/5 381/2/5 380/2/5
f 383/2/5 382/2/5 381/2/5
f 383/2/5 380/2/5 379/2/5
f 384/2/5 382/2/5 383/2/5
f 385/2/5 382/2/5 384/2/5
f 386/2/5 382/2/5 385/2/5
f 387/2/5 383/2/5 379/2/5
f 388/2/5 385/2/5 384/2/5
f 389/2/5 385/2/5 388/2/5
f 390/2/5 382/2/5 386/2/5
f 391/2/5 389/2/5 388/2/5
f 391/2/5 390/2/5 389/2/5
f 391/2/5 387/2/5 379/2/5
f 391/2/5 388/2/5 387/2/5
f 392/2/5 390/2/5 391/2/5
f 393/2/5 390/2/5 392/2/5
f 394/2/5 382/2/5 390/2/5
f 394/2/5 390/2/5 393/2/5
f 395/2/5 391/2/5 379/2/5
f 396/2/5 393/2/5 392/2/5
f 397/2/5 393/2/5 396/2/5
f 398/2/5 382/2/5 394/2/5
f 399/2/5 379/2/5 371/2/5
f 399/2/5 398/2/5 397/2/5
f 399/2/5 395/2/5 379/2/5
f 399/2/5 397/2/5 396/2/5
f 399/2/5 396/2/5 395/2/5
f 400/2/5 398/2/5 399/2/5
f 401/2/5 382/2/5 398/2/5
f 401/2/5 398/2/5 400/2/5
f 402/2/5 378/2/5 382/2/5
f 402/2/5 382/2/5 401/2/5
f 403/2/5 399/2/5 371/2/5
f 404/2/5 399/2/5 403/2/5
f 405/2/5 401/2/5 400/2/5
f 406/2/5 401/2/5 405/2/5
f 407/2/5 401/2/5 406/2/5
f 408/2/5 401/2/5 407/2/5
f 409/2/5 378/2/5 402/2/5
f 410/2/5 378/2/5 409/2/5
f 411/2/5 407/2/5 406/2/5
f 412/2/5 407/2/5 411/2/5
f 413/2/5 407/2/5 412/2/5
f 414/2/5 407/2/5 413/2/5
f 416/2/5 413/2/5 412/2/5
f 417/2/5 413/2/5 416/2/5
f 419/2/5 416/2/5 415/2/5
f 419/2/5 418/2/5 417/2/5
f 419/2/5 417/2/5 416/2/5
f 420/2/5 418/2/5 419/2/5
f 421/2/6 422/2/6 423/2/6
f 423/2/6 422/2/6 424/2/6
f 421/2/6 423/2/6 425/2/6
f 423/1/6 424/1/6 425/1/6
f 424/2/6 422/2/6 426/2/6
f 425/1/6 424/1/6 426/1/6
f 421/2/6 425/2/6 427/2/6
f 425/2/6 426/2/6 427/2/6
f 426/2/6 422/2/6 428/2/6
f 427/2/6 426/2/6 428/2/6
f 421/2/6 427/2/6 430/2/6
f 428/2/6 422/2/6 431/2/6
f 429/2/6 430/2/6 433/2/6
f 427/1/6 428/1/6 433/1/6
f 430/2/6 427/2/6 433/2/6
f 431/2/6 432/2/6 434/2/6
f 433/1/6 428/1/6 434/1/6
f 428/2/6 431/2/6 434/2/6
f 429/2/6 433/2/6 435/2/6
f 433/2/6 434/2/6 435/2/6
f 435/2/6 434/2/6 436/2/6
f 436/2/6 434/2/6 437/2/6
f 437/2/6 434/2/6 438/2/6
f 434/2/6 432/2/6 439/2/6
f 438/2/6 434/2/6 439/2/6
f 439/2/6 432/2/6 440/2/6
f 440/2/6 432/2/6 441/2/6
f 441/2/6 432/2/6 442/2/6
f 429/2/6 435/2/6 443/2/6
f 435/1/6 436/1/6 443/1/6
f 436/2/6 437/2/6 444/2/6
f 443/1/6 436/1/6 444/1/6
f 437/1/6 438/1/6 445/1/6
f 444/2/6 437/2/6 445/2/6
f 438/2/6 439/2/6 446/2/6
f 445/1/6 438/1/6 446/1/6
f 439/1/6 440/1/6 447/1/6
f 446/2/6 439/2/6 447/2/6
f 440/2/6 441/2/6 448/2/6
f 447/1/6 440/1/6 448/1/6
f 441/1/6 442/1/6 449/1/6
f 448/2/6 441/2/6 449/2/6
f 442/2/6 432/2/6 450/2/6
f 449/1/6 442/1/6 450/1/6
f 443/2/6 444/2/6 451/2/6
f 448/2/6 449/2/6 451/2/6
f 449/2/6 450/2/6 451/2/6
f 446/2/6 447/2/6 451/2/6
f 445/2/6 446/2/6 451/2/6
f 444/2/6 445/2/6 451/2/6
f 447/2/6 448/2/6 451/2/6
f 451/2/6 450/2/6 452/2/6
f 429/2/6 443/2/6 453/2/6
f 443/2/6 451/2/6 453/2/6
f 453/2/6 451/2/6 454/2/6
f 452/2/6 450/2/6 455/2/6
f 450/2/6 432/2/6 456/2/6
f 455/2/6 450/2/6 456/2/6
f 454/2/6 451/2/6 457/2/6
f 451/1/6 452/1/6 457/1/6
f 452/2/6 455/2/6 458/2/6
f 457/1/6 452/1/6 458/1/6
f 454/2/6 457/2/6 459/2/6
f 457/2/6 458/2/6 459/2/6
f 458/2/6 455/2/6 460/2/6
f 459/2/6 458/2/6 460/2/6
f 454/2/6 459/2/6 461/2/6
f 459/1/6 460/1/6 461/1/6
f 460/2/6 455/2/6 462/2/6
f 461/1/6 460/1/6 462/1/6
f 454/2/6 461/2/6 463/2/6
f 461/2/6 462/2/6 463/2/6
f 462/2/6 455/2/6 464/2/6
f 463/2/6 462/2/6 464/2/6
f 465/3/6 466/3/6 470/3/6
f 467/3/6 468/3/6 471/3/6
f 469/3/6 470/3/6 473/3/6
f 470/3/6 466/3/6 474/3/6
f 473/3/6 470/3/6 474/3/6
f 471/3/6 472/3/6 475/3/6
f 467/3/6 471/3/6 475/3/6
f 475/3/6 472/3/6 476/3/6
f 477/3/6 478/3/6 481/3/6
f 481/3/6 478/3/6 482/3/6
f 479/3/6 480/3/6 483/3/6
f 483/3/6 480/3/6 484/3/6
f 482/3/6 478/3/6 485/3/6
f 485/3/6 478/3/6 486/3/6
f 479/3/6 483/3/6 487/3/6
f 487/3/6 483/3/6 488/3/6
